<svg width="300" height="300" viewBox="0 0 300 300" fill="none" xmlns="http://www.w3.org/2000/svg">
<rect width="300" height="300" fill="white"/>
<rect width="300" height="300" fill="#192547"/>
<path fill-rule="evenodd" clip-rule="evenodd" d="M192.171 158.575C191.431 167.009 189.575 182.133 188.287 190.507C187.816 193.576 186.591 196.6 185.283 199.459C184.535 201.093 183.115 202.576 181.666 203.737C178.495 206.278 174.543 205.855 172.506 202.431C171.081 200.034 169.985 197.102 169.904 194.375C169.746 189.09 170.933 177.047 171.493 171.771C173.889 149.201 176.333 126.634 178.945 104.087C179.687 97.6794 181.615 89.1695 182.716 82.8023C182.838 82.0999 183.079 81.406 183.354 80.7424C184.248 78.5794 185.764 77.1343 188.287 77.0066C190.577 76.8916 192.877 78.2872 193.686 80.743C194.354 82.7682 194.597 84.9492 194.818 87.0816C195.01 88.9336 194.91 90.815 194.939 92.6829C195.299 113.959 194.03 137.377 192.171 158.575ZM134.973 154.557C130.542 152.162 119.696 145.202 117.547 143.9C108.108 138.183 107.65 129.345 116.898 123.424C121.182 120.682 123.623 118.932 128.474 117.149C132.626 115.625 137.01 114.696 141.979 113.311C140.399 112.242 139.389 111.454 138.283 110.826C133.133 107.9 119.213 99.4872 114.119 96.4729C112.238 95.3592 110.437 93.9697 108.966 92.3848C107.226 90.509 107.211 88.0353 108.498 86.3739C109.965 84.4813 111.935 84.2007 114.101 84.9716C125.342 88.9704 144.867 99.3818 154.696 106.108C155.304 106.523 155.861 107.014 156.407 107.507C162.473 113.001 161.774 119.212 154.322 122.867C149.821 125.074 144.958 126.595 140.236 128.371C136.373 129.824 132.477 131.197 127.79 132.897C129.808 134.114 131.032 134.843 132.245 135.586C138.299 139.291 144.48 142.819 150.342 146.792C152.84 148.485 155.048 150.868 156.722 153.36C159.965 158.187 158.966 163.77 154.287 167.324C151.858 169.17 148.972 170.517 146.152 171.799C140.888 174.193 135.481 176.291 130.218 178.686C128.115 179.643 126.235 181.062 123.677 182.622C125.984 185.246 127.905 187.389 129.779 189.571C134.674 195.269 139.535 201.23 144.41 207.013C154.696 219.212 144.41 229.277 132.367 218.005C126.274 212.304 120.205 206.578 114.174 200.816C111.859 198.604 109.851 195.99 108.143 193.297C102.736 184.774 104.346 175.327 112.658 169.416C116.688 166.551 121.459 164.599 126.057 162.58C129.438 161.094 133.087 160.185 136.603 158.983C137.548 158.66 138.445 158.204 139.856 157.598C137.952 156.404 136.514 155.389 134.973 154.557Z" fill="#FCE050"/>
</svg>
