<svg width="1500" height="500" viewBox="0 0 1500 500" fill="none" xmlns="http://www.w3.org/2000/svg">
<g clip-path="url(#clip0)">
<rect width="1500" height="500" fill="#FEE97C"/>
<path opacity="0.5" fill-rule="evenodd" clip-rule="evenodd" d="M1137.74 180.956C1326.11 185.115 1663.91 196.237 1850.94 204.196C1919.5 207.112 1987.06 215.247 2050.96 223.98C2087.47 228.971 2120.64 238.639 2146.6 248.545C2203.46 270.213 2194.17 297.638 2117.77 312.139C2064.3 322.285 1998.86 330.208 1937.98 331.083C1819.95 332.78 1550.99 325.942 1433.14 322.665C929.048 308.66 425.035 294.319 -78.547 278.812C-221.667 274.406 -411.769 262.025 -553.994 255.127C-569.684 254.364 -585.186 252.775 -600.015 250.947C-648.348 245.001 -680.673 234.67 -683.614 217.204C-686.263 201.359 -655.181 185.268 -600.369 179.381C-555.168 174.527 -506.474 172.595 -458.862 170.817C-417.513 169.274 -375.496 169.755 -333.786 169.339C141.321 164.402 664.294 170.508 1137.74 180.956Z" fill="#F5C235"/>
<path d="M471.08 245.256C470.36 251.4 468.92 252.984 464.216 252.984H458.696C455.288 252.984 454.616 252.36 454.616 249.336V239.352H460.808C465.56 239.352 466.136 239.832 466.568 244.152H468.728V232.536H466.568C466.136 236.856 465.56 237.336 460.808 237.336H454.616V224.376H462.968C468.344 224.376 469.688 225.48 470.504 230.616H472.904L472.472 222.36H445.352V224.04C449.192 224.136 449.624 224.52 449.624 228.072V249.24C449.624 252.696 449.048 253.176 445.16 253.32V255H472.808L473.48 245.256H471.08ZM511.133 249.48V239.976C511.133 234.456 508.925 231.672 504.413 231.672C501.293 231.672 499.229 233.208 497.453 236.232C496.637 233.256 494.573 231.672 491.501 231.672C488.381 231.672 486.317 233.208 484.541 236.28V231.96H483.197L477.101 233.592V234.84C479.741 234.84 480.317 235.464 480.317 238.2V249.96C480.317 252.696 479.789 253.32 477.101 253.56V255H487.661V253.56C485.117 253.32 484.541 252.696 484.541 249.96V238.248C486.269 236.328 487.709 235.512 489.725 235.512C492.269 235.512 493.613 237.096 493.613 239.976V249.48C493.613 252.648 493.133 253.32 490.541 253.56V255H500.957V253.56C498.365 253.32 497.837 252.648 497.837 249.48V239.544C497.837 238.968 497.789 238.392 497.741 237.864C499.325 236.232 500.717 235.512 502.733 235.512C505.469 235.512 506.909 237.144 506.909 240.12V249.48C506.909 252.648 506.429 253.32 503.837 253.56V255H514.397V253.56C511.661 253.32 511.133 252.648 511.133 249.48ZM530.91 231.672C527.55 231.672 525.102 233.448 523.518 236.28V231.96H522.174L516.078 233.592V234.84C518.718 234.84 519.294 235.464 519.294 238.2V259.368C519.294 262.68 518.814 263.208 516.078 263.448V264.888H528.558V263.448C524.142 263.208 523.518 262.584 523.518 259.368V254.04C524.526 254.856 526.494 255.672 529.086 255.672C535.95 255.672 539.646 250.872 539.646 243.048C539.646 235.992 536.046 231.672 530.91 231.672ZM528.75 253.656C525.726 253.656 523.518 251.352 523.518 246.984V238.248C525.294 236.28 527.166 235.512 529.182 235.512C532.782 235.512 534.942 238.824 534.942 244.392C534.942 250.248 532.782 253.656 528.75 253.656ZM549.631 249.48V220.92H548.479L542.191 222.792V224.04C544.831 224.04 545.407 224.616 545.407 227.16V249.48C545.407 253.032 544.687 253.368 541.807 253.56V255H553.231V253.56C550.351 253.368 549.631 253.032 549.631 249.48ZM566.494 255.672C573.214 255.672 577.582 250.92 577.582 243.624C577.582 236.376 573.214 231.672 566.494 231.672C559.774 231.672 555.406 236.424 555.406 243.72C555.406 250.968 559.774 255.672 566.494 255.672ZM566.974 253.656C562.654 253.656 560.446 248.232 560.446 242.712C560.446 235.896 563.422 233.688 566.014 233.688C570.334 233.688 572.542 239.112 572.542 244.632C572.542 251.448 569.566 253.656 566.974 253.656ZM593.343 232.248V233.688C595.311 233.736 596.367 234.552 596.367 235.896C596.367 236.376 596.223 236.952 595.983 237.576L591.663 248.52L587.055 237.048C586.863 236.568 586.767 236.136 586.767 235.752C586.767 234.456 587.823 233.784 589.791 233.688V232.248H578.991V233.688C580.479 233.736 581.295 234.696 582.783 238.296L589.455 254.04C587.727 258.36 586.383 261.288 584.223 262.632C582.111 261.24 582.159 259.128 579.951 259.128C578.367 259.128 577.359 260.088 577.359 261.768C577.359 263.928 579.279 265.32 581.871 265.32C585.519 265.32 588.591 262.344 591.183 255.768L598.287 237.816C599.583 234.552 600.159 233.832 601.599 233.688V232.248H593.343ZM621.877 241.176C621.925 235.128 618.805 231.672 613.141 231.672C606.661 231.672 602.821 236.712 602.821 244.152C602.821 251.112 606.805 255.672 613.141 255.672C618.085 255.672 620.725 253.032 621.733 247.656L620.197 247.224C619.189 249.576 616.885 251.016 614.053 251.016C609.685 251.016 606.901 247.608 606.901 242.424C606.901 241.992 606.901 241.56 606.949 241.176H621.877ZM612.613 233.64C615.829 233.64 617.173 235.896 617.173 239.112H607.189C607.909 235.56 609.925 233.64 612.613 233.64ZM644.272 241.176C644.32 235.128 641.2 231.672 635.536 231.672C629.056 231.672 625.216 236.712 625.216 244.152C625.216 251.112 629.2 255.672 635.536 255.672C640.48 255.672 643.12 253.032 644.128 247.656L642.592 247.224C641.584 249.576 639.28 251.016 636.448 251.016C632.08 251.016 629.296 247.608 629.296 242.424C629.296 241.992 629.296 241.56 629.344 241.176H644.272ZM635.008 233.64C638.224 233.64 639.568 235.896 639.568 239.112H629.584C630.304 235.56 632.32 233.64 635.008 233.64ZM670.793 231.672C667.721 231.672 665.177 235.848 664.169 239.016V231.96H662.825L656.729 233.592V234.84C659.369 234.84 659.945 235.464 659.945 238.2V249.96C659.945 252.696 659.417 253.32 656.729 253.56V255H668.249V253.56C664.937 253.32 664.169 252.696 664.169 249.96V242.424C665.273 238.584 666.857 236.28 667.817 235.272C668.297 235.656 668.537 236.376 669.017 236.856C669.545 237.384 670.169 237.768 671.321 237.768C672.857 237.768 674.009 236.712 674.009 234.84C674.009 233.016 672.617 231.672 670.793 231.672ZM695.004 241.176C695.052 235.128 691.932 231.672 686.268 231.672C679.788 231.672 675.948 236.712 675.948 244.152C675.948 251.112 679.932 255.672 686.268 255.672C691.212 255.672 693.852 253.032 694.86 247.656L693.324 247.224C692.316 249.576 690.012 251.016 687.18 251.016C682.812 251.016 680.028 247.608 680.028 242.424C680.028 241.992 680.028 241.56 680.076 241.176H695.004ZM685.74 233.64C688.956 233.64 690.3 235.896 690.3 239.112H680.316C681.036 235.56 683.052 233.64 685.74 233.64ZM718.695 259.368V231.864H717.159L715.527 234.504C713.943 232.632 711.591 231.672 708.807 231.672C702.135 231.672 698.343 236.856 698.343 244.392C698.343 251.352 702.087 255.672 707.367 255.672C710.391 255.672 712.695 254.232 714.471 251.064V259.368C714.471 262.68 713.847 263.256 709.047 263.448V264.888H721.623V263.448C719.175 263.256 718.695 262.68 718.695 259.368ZM708.855 251.832C705.207 251.832 703.047 248.52 703.047 243.048C703.047 237.384 705.159 233.688 709.287 233.688C712.695 233.688 714.471 235.8 714.471 240.36V249C712.695 250.968 710.823 251.832 708.855 251.832ZM743.321 249.336V232.248H735.785V233.64C738.617 233.928 739.097 234.36 739.097 236.616V249C737.369 250.968 735.641 251.832 733.673 251.832C731.129 251.832 729.641 250.68 729.641 246.504V232.248H722.825V233.592C724.793 234.024 725.417 234.696 725.417 236.616V247.8C725.417 253.08 728.201 255.672 732.137 255.672C735.353 255.672 737.369 254.232 739.097 251.064V254.76L739.769 255.288L746.969 254.28V252.84C744.041 252.84 743.321 252.312 743.321 249.336ZM768.424 241.176C768.472 235.128 765.352 231.672 759.688 231.672C753.208 231.672 749.368 236.712 749.368 244.152C749.368 251.112 753.352 255.672 759.688 255.672C764.632 255.672 767.272 253.032 768.28 247.656L766.744 247.224C765.736 249.576 763.432 251.016 760.6 251.016C756.232 251.016 753.448 247.608 753.448 242.424C753.448 241.992 753.448 241.56 753.496 241.176H768.424ZM759.16 233.64C762.376 233.64 763.72 235.896 763.72 239.112H753.736C754.456 235.56 756.472 233.64 759.16 233.64ZM779.586 255.672C784.674 255.672 787.794 253.08 787.794 248.904C787.794 245.928 786.21 243.672 782.946 242.232L779.538 240.744C777.138 239.688 776.13 238.584 776.13 236.76C776.13 234.84 777.618 233.736 780.066 233.736C782.994 233.736 784.914 235.464 785.586 238.968H787.794L787.554 233.256C785.538 232.248 782.851 231.672 780.45 231.672C775.362 231.672 772.242 234.264 772.242 238.44C772.242 241.416 773.826 243.672 777.09 245.112L780.498 246.6C782.898 247.656 783.906 248.76 783.906 250.584C783.906 252.504 782.418 253.608 779.97 253.608C777.042 253.608 775.122 251.88 774.45 247.56H772.242L772.482 254.088C774.498 255.096 777.186 255.672 779.586 255.672ZM805.978 250.056C804.73 251.208 803.29 251.832 801.898 251.832C799.882 251.832 798.874 250.536 798.874 247.944V235.992H805.45V232.248H798.874V228.216H796.762C796.282 231.432 794.17 233.544 790.666 234.024V235.992H794.65V249C794.65 253.08 796.81 255.48 800.458 255.48C803.002 255.48 804.922 254.184 806.938 250.92L805.978 250.056ZM817.158 255.672C822.246 255.672 825.366 253.08 825.366 248.904C825.366 245.928 823.782 243.672 820.518 242.232L817.11 240.744C814.71 239.688 813.702 238.584 813.702 236.76C813.702 234.84 815.19 233.736 817.638 233.736C820.566 233.736 822.486 235.464 823.158 238.968H825.366L825.126 233.256C823.11 232.248 820.422 231.672 818.022 231.672C812.934 231.672 809.814 234.264 809.814 238.44C809.814 241.416 811.398 243.672 814.662 245.112L818.07 246.6C820.47 247.656 821.478 248.76 821.478 250.584C821.478 252.504 819.99 253.608 817.542 253.608C814.614 253.608 812.694 251.88 812.022 247.56H809.814L810.054 254.088C812.07 255.096 814.758 255.672 817.158 255.672ZM830.541 261.336C834.621 261.336 837.309 258.648 837.309 254.52C837.309 251.352 835.965 249.72 833.613 249.72C831.837 249.72 830.541 250.968 830.541 252.696C830.541 254.376 831.645 255.432 833.373 255.432C834.045 255.432 834.621 255.288 835.389 254.904C835.485 257.688 833.661 259.704 830.541 259.752V261.336ZM859.78 255.672C864.868 255.672 867.988 253.08 867.988 248.904C867.988 245.928 866.404 243.672 863.14 242.232L859.732 240.744C857.332 239.688 856.324 238.584 856.324 236.76C856.324 234.84 857.812 233.736 860.26 233.736C863.188 233.736 865.108 235.464 865.78 238.968H867.988L867.748 233.256C865.732 232.248 863.044 231.672 860.644 231.672C855.556 231.672 852.436 234.264 852.436 238.44C852.436 241.416 854.02 243.672 857.284 245.112L860.692 246.6C863.092 247.656 864.1 248.76 864.1 250.584C864.1 252.504 862.612 253.608 860.164 253.608C857.236 253.608 855.316 251.88 854.644 247.56H852.436L852.676 254.088C854.692 255.096 857.38 255.672 859.78 255.672ZM876.956 228.264C878.78 228.264 880.124 226.968 880.124 225.096C880.124 223.224 878.78 221.928 876.956 221.928C875.132 221.928 873.788 223.224 873.788 225.096C873.788 226.968 875.132 228.264 876.956 228.264ZM871.34 255H882.764V253.56C879.884 253.368 879.164 253.032 879.164 249.48V231.96H877.82L871.34 233.592V234.84C874.316 234.84 874.94 235.464 874.94 238.2V249.48C874.94 253.032 874.22 253.368 871.34 253.56V255ZM919.189 249.48V239.976C919.189 234.456 916.981 231.672 912.469 231.672C909.349 231.672 907.285 233.208 905.509 236.232C904.693 233.256 902.629 231.672 899.557 231.672C896.437 231.672 894.373 233.208 892.597 236.28V231.96H891.253L885.157 233.592V234.84C887.797 234.84 888.373 235.464 888.373 238.2V249.96C888.373 252.696 887.845 253.32 885.157 253.56V255H895.717V253.56C893.173 253.32 892.597 252.696 892.597 249.96V238.248C894.325 236.328 895.765 235.512 897.781 235.512C900.325 235.512 901.669 237.096 901.669 239.976V249.48C901.669 252.648 901.189 253.32 898.597 253.56V255H909.013V253.56C906.421 253.32 905.893 252.648 905.893 249.48V239.544C905.893 238.968 905.845 238.392 905.797 237.864C907.381 236.232 908.773 235.512 910.789 235.512C913.525 235.512 914.965 237.144 914.965 240.12V249.48C914.965 252.648 914.485 253.32 911.893 253.56V255H922.453V253.56C919.717 253.32 919.189 252.648 919.189 249.48ZM938.966 231.672C935.606 231.672 933.158 233.448 931.574 236.28V231.96H930.23L924.134 233.592V234.84C926.774 234.84 927.35 235.464 927.35 238.2V259.368C927.35 262.68 926.87 263.208 924.134 263.448V264.888H936.614V263.448C932.198 263.208 931.574 262.584 931.574 259.368V254.04C932.582 254.856 934.55 255.672 937.142 255.672C944.006 255.672 947.702 250.872 947.702 243.048C947.702 235.992 944.102 231.672 938.966 231.672ZM936.806 253.656C933.782 253.656 931.574 251.352 931.574 246.984V238.248C933.35 236.28 935.222 235.512 937.238 235.512C940.838 235.512 942.998 238.824 942.998 244.392C942.998 250.248 940.838 253.656 936.806 253.656ZM957.687 249.48V220.92H956.535L950.247 222.792V224.04C952.887 224.04 953.463 224.616 953.463 227.16V249.48C953.463 253.032 952.743 253.368 949.863 253.56V255H961.287V253.56C958.407 253.368 957.687 253.032 957.687 249.48ZM969.067 228.264C970.891 228.264 972.235 226.968 972.235 225.096C972.235 223.224 970.891 221.928 969.067 221.928C967.243 221.928 965.899 223.224 965.899 225.096C965.899 226.968 967.243 228.264 969.067 228.264ZM963.451 255H974.875V253.56C971.995 253.368 971.275 253.032 971.275 249.48V231.96H969.931L963.451 233.592V234.84C966.427 234.84 967.051 235.464 967.051 238.2V249.48C967.051 253.032 966.331 253.368 963.451 253.56V255ZM1001.32 249.48V231.96H999.972L998.82 232.248H985.668C985.62 231.672 985.62 231.144 985.62 230.664C985.62 225.576 988.356 222.36 992.868 222.36C993.3 222.36 993.972 222.456 994.356 222.552C995.076 223.464 995.076 225 995.604 226.104C996.084 227.112 996.804 227.544 998.052 227.544C999.684 227.544 1000.74 226.44 1000.74 224.664C1000.74 222.12 997.812 220.44 993.252 220.44C986.196 220.44 981.924 224.952 981.588 232.488L977.028 234.504V235.992H981.588V249.48C981.588 252.84 981.012 253.368 977.028 253.56V255H990.132V253.56C986.58 253.368 985.812 252.744 985.812 249.48V235.992H994.452C996.612 235.992 997.092 236.52 997.092 238.872V249.48C997.092 253.032 996.324 253.368 993.252 253.56V255H1004.92V253.56C1002.04 253.368 1001.32 253.032 1001.32 249.48ZM1026.84 241.176C1026.89 235.128 1023.77 231.672 1018.1 231.672C1011.62 231.672 1007.78 236.712 1007.78 244.152C1007.78 251.112 1011.77 255.672 1018.1 255.672C1023.05 255.672 1025.69 253.032 1026.7 247.656L1025.16 247.224C1024.15 249.576 1021.85 251.016 1019.02 251.016C1014.65 251.016 1011.86 247.608 1011.86 242.424C1011.86 241.992 1011.86 241.56 1011.91 241.176H1026.84ZM1017.58 233.64C1020.79 233.64 1022.14 235.896 1022.14 239.112H1012.15C1012.87 235.56 1014.89 233.64 1017.58 233.64ZM1050.53 249.432V220.92H1049.38L1042.13 222.792V224.04C1045.54 224.04 1046.31 224.616 1046.31 227.16V233.352C1044.77 232.2 1042.66 231.672 1040.64 231.672C1033.97 231.672 1030.18 236.904 1030.18 244.392C1030.18 251.352 1033.92 255.672 1039.11 255.672C1042.27 255.672 1044.53 254.232 1046.31 251.064L1046.59 254.568L1047.12 255H1054.13V253.56C1051.15 253.32 1050.53 252.6 1050.53 249.432ZM1040.69 251.832C1037.04 251.832 1034.88 248.52 1034.88 243.048C1034.88 237.384 1037.04 233.688 1041.17 233.688C1044.43 233.688 1046.31 235.8 1046.31 240.36V249.096C1044.53 251.016 1042.66 251.832 1040.69 251.832Z" fill="#192547"/>
</g>
<defs>
<clipPath id="clip0">
<rect width="1500" height="500" fill="white"/>
</clipPath>
</defs>
</svg>
